Coordinates
version=1
nRows=12
nColumns=34
inDegrees=yes

Units are S.I. units (second, meters, Newtons, ...)
If the header above contains a line with 'inDegrees', this indicates whether rotational values are in degrees (yes) or radians (no).

endheader
time	pelvis_tilt	pelvis_list	pelvis_rotation	pelvis_tx	pelvis_ty	pelvis_tz	hip_flexion_r	hip_adduction_r	hip_rotation_r	knee_angle_r	ankle_angle_r	subtalar_angle_r	mtp_angle_r	hip_flexion_l	hip_adduction_l	hip_rotation_l	knee_angle_l	ankle_angle_l	subtalar_angle_l	mtp_angle_l	lumbar_extension	lumbar_bending	lumbar_rotation	arm_flex_r	arm_add_r	arm_rot_r	elbow_flex_r	pro_sup_r	arm_flex_l	arm_add_l	arm_rot_l	elbow_flex_l	pro_sup_l
      5.30000000	     20.67063789	      9.43888021	      2.31289040	     -0.35586709	      0.53703729	      0.13386823	     69.47852694	      4.00463685	      1.74338872	     31.23009548	    -15.60855947	     -9.47962595	      0.00000000	     68.22991312	     -6.86924959	    -13.55215807	    132.41650471	     27.93646239	    -16.27217611	      0.00000000	    -53.63092660	      3.17828717	      2.60781598	     22.11892997	    -52.47158781	     17.36408084	     79.70212930	     91.79573958	    102.46741617	     -4.98603180	     44.85403186	     53.29117457	     76.27759509
      5.31666670	     19.67362130	      9.78924923	      2.43445350	     -0.34811751	      0.53471244	      0.13561591	     70.92774987	      3.97853947	      2.44248312	     32.38883806	    -14.86285055	    -11.00049121	      0.00000000	     68.65385301	     -6.54256279	    -13.56703803	    132.61534562	     28.53199994	    -15.95739607	      0.00000000	    -53.44849004	      2.47576673	      4.00113796	     24.54862141	    -52.94556195	     14.87072026	     80.46049632	     90.76413152	    107.71995618	     -3.80685716	     51.58093641	     45.46347262	     75.14675214
      5.33333330	     18.50579728	     10.35439804	      2.99690035	     -0.33658686	      0.53422140	      0.13224987	     72.65284823	      3.36673221	      2.41774298	     34.05744621	    -13.96989106	    -11.72487858	      0.00000000	     68.93754579	     -5.90831672	    -13.79749534	    132.91978335	     27.88901216	    -16.83663899	      0.00000000	    -51.68233009	      2.26300536	      6.54705517	     23.68631689	    -54.97252951	     12.25932557	     81.77472387	     90.12081492	    108.62278987	     -2.74859242	     49.42580895	     55.55184692	     73.63645170
      5.35000000	     17.11656507	     10.57593755	      3.06355819	     -0.33110641	      0.52978423	      0.12938814	     75.13429920	      3.13106352	      2.56714649	     35.93900753	    -13.34603196	    -12.95846523	      0.00000000	     70.05489097	     -5.49420309	    -14.13151799	    133.75260665	     29.24057451	    -16.12289354	      0.00000000	    -49.80643680	      1.52124373	      8.82899744	     24.75833508	    -56.28315362	     11.17312896	     81.16607863	     89.92446613	    110.98105018	     -1.19301758	     49.33030915	     62.35472214	     73.55672183
      5.36666670	     16.88416282	     11.29769848	      3.11795452	     -0.33293853	      0.52889852	      0.13112105	     75.91074676	      2.80457146	      3.21108231	     36.40667007	    -13.76949856	    -13.44174725	      0.00000000	     70.10120285	     -5.29228491	    -14.94786666	    133.56244866	     29.36269087	    -16.09490367	      0.00000000	    -49.63957142	      0.66563267	      9.09417750	     33.76942383	    -56.60390288	     17.25949010	     77.92326510	     89.28495861	    115.70854964	     -0.46048923	     50.65565974	     63.79889816	     73.48802370
      5.38333330	     16.36855717	     11.33734768	      3.03960578	     -0.33158984	      0.52470546	      0.12646231	     77.16348312	      2.73422631	      3.21646805	     37.22277240	    -13.60340663	    -13.89035661	      0.00000000	     70.78452925	     -4.82443496	    -15.50126096	    134.15738534	     30.31794919	    -16.13791572	      0.00000000	    -49.23344937	      0.43083251	      9.57537978	     45.30196551	    -56.92259334	     26.82193389	     73.78713958	     88.39278418	    120.51930389	      0.36947437	     51.33170669	     64.45353662	     73.92634029
      5.40000000	     14.91806449	     11.58160900	      4.06358287	     -0.31549188	      0.52038827	      0.12366687	     79.49214229	      1.85735822	      3.25004403	     38.67743265	    -13.80087565	    -14.39141091	      0.00000000	     71.58133485	     -4.09992541	    -15.25069341	    135.12897831	     32.19668106	    -14.69138848	      0.00000000	    -47.75256495	      0.72356025	     10.54676311	     51.05672024	    -58.07986913	     30.64167050	     72.22490294	     87.81339091	    123.29114714	      1.48845096	     50.12291522	     65.21103383	     74.34462907
      5.41666670	     13.20489963	     12.06394196	      5.03670231	     -0.30525553	      0.52071182	      0.11774220	     81.99812317	      0.69069385	      3.42697185	     40.88857871	    -12.93184560	    -15.38699990	      0.00000000	     72.28992298	     -3.25444659	    -16.47554084	    135.07529371	     33.07208990	    -14.83478828	      0.00000000	    -45.75951168	      0.69796868	      9.82539119	     56.74321485	    -56.58602540	     34.31602383	     69.03497147	     86.35322807	    125.92529956	      1.26920518	     50.88439032	     65.65750118	     75.68249904
      5.43333330	     11.45255892	     11.86492263	      6.16994694	     -0.29278157	      0.51837359	      0.11324495	     85.18944872	     -0.22866130	      3.20903361	     44.23073491	    -11.47881651	    -15.25317772	      0.00000000	     72.92418175	     -2.05799249	    -16.37884545	    135.54916778	     34.18534034	    -15.16210997	      0.00000000	    -43.63781722	      1.29932647	     11.67727355	     59.01184689	    -57.77420200	     35.15652724	     67.82473168	     86.24030531	    127.26121821	      2.92628617	     50.57295487	     65.03130094	     75.82712542
      5.45000000	     11.49096690	     11.70982542	      6.41859295	     -0.29994025	      0.51598367	      0.11768406	     86.10867517	     -0.28782600	      3.04255574	     45.55818413	    -11.48105181	    -15.44730140	      0.00000000	     72.97447602	     -1.86111572	    -16.13000410	    135.79325248	     35.45641244	    -13.96664416	      0.00000000	    -44.35316847	      1.59097021	     11.67513529	     67.63979217	    -56.38932511	     42.05671069	     65.22365237	     84.18138781	    131.06204916	      2.68889096	     51.44580089	     63.25809249	     76.82989037
      5.46666670	     12.10615123	     11.82087311	      5.83375774	     -0.31163625	      0.51799520	      0.12607816	     85.44173589	      0.59472697	      3.28299554	     45.21823006	    -13.15617535	    -16.04641518	      0.00000000	     72.65691915	     -2.80962427	    -15.58766481	    135.31757559	     35.28000655	    -12.57670513	      0.00000000	    -46.35615518	      1.30449364	     12.51293421	     77.15056872	    -53.93943576	     48.18477630	     60.36323625	     82.15918773	    134.81014348	      1.90989273	     52.82337502	     61.64246772	     76.61556899
      5.48333330	     11.93916038	     11.64449724	      5.05354626	     -0.30983018	      0.51830083	      0.12885975	     85.42974048	      1.45898529	      2.79515660	     45.07136402	    -13.40606674	    -16.45102676	      0.00000000	     73.06578818	     -3.95773602	    -14.90008570	    135.18370966	     34.68777858	    -12.04535209	      0.00000000	    -47.79213501	      1.09439990	     13.10876023	     85.45204758	    -50.76700846	     53.67506725	     56.11511962	     79.50819008	    138.53390788	      0.52738889	     53.72105808	     60.88599755	     75.56300096
